<svg xmlns="http://www.w3.org/2000/svg" width="64" height="64" viewBox="0 0 16.933 16.933" id="eraser-rubber"><path d="m 11.113018,281.82981 c -0.338971,0 -0.677844,0.12749 -0.935342,0.38499 l -5.9443407,5.94434 5.1366367,5.13664 5.944341,-5.94434 c 0.515001,-0.515 0.515001,-1.35621 0,-1.8712 l -3.265435,-3.26544 c -0.2575,-0.2575 -0.596887,-0.38499 -0.93586,-0.38499 z m -0.0036,1.67587 a 0.26460982,0.26460982 0 0 1 0.189135,0.078 l 2.646868,2.64687 a 0.26460982,0.26460982 0 0 1 0,0.3731 l -4.7619843,4.76354 a 0.26460982,0.26460982 0 0 1 -0.3751686,0 l -2.646377,-2.64633 a 0.26460982,0.26460982 0 0 1 0,-0.37516 l 4.7635349,-4.76199 a 0.26460982,0.26460982 0 0 1 0.183967,-0.078 z m 0.0036,0.63872 -4.3883607,4.38888 2.271178,2.27118 4.3888787,-4.38836 z m -7.2538194,4.38888 -2.2809984,2.281 c -0.514975,0.51497 -0.514975,1.35622 0,1.8712 l 2.6499678,2.65049 a 0.26460982,0.26460982 0 0 0 0.1875842,0.076 h 2.7285157 a 0.26460982,0.26460982 0 0 0 0.1855179,-0.076 l 1.6660495,-1.66605 z" color="#000" font-family="sans-serif" font-weight="400" overflow="visible" transform="translate(0 -280.067)" style="line-height:normal;font-variant-ligatures:normal;font-variant-position:normal;font-variant-caps:normal;font-variant-numeric:normal;font-variant-alternates:normal;font-feature-settings:normal;text-indent:0;text-align:start;text-decoration-line:none;text-decoration-style:solid;text-decoration-color:#000;text-transform:none;text-orientation:mixed;shape-padding:0;isolation:auto;mix-blend-mode:normal"></path></svg>